<mxfile host="app.diagrams.net" modified="2023-09-15T04:36:59.232Z" agent="Mozilla/5.0 (Windows NT 10.0; Win64; x64) AppleWebKit/537.36 (KHTML, like Gecko) Chrome/116.0.0.0 Safari/537.36" etag="9SyO69npFgx6uHtYp2hr" version="21.7.5" type="github">
  <diagram name="페이지-1" id="8XCkK9Wqvl7NkWUmMLuJ">
    <mxGraphModel dx="1938" dy="1045" grid="1" gridSize="10" guides="1" tooltips="1" connect="1" arrows="1" fold="1" page="1" pageScale="1" pageWidth="1169" pageHeight="1654" math="0" shadow="0">
      <root>
        <mxCell id="0" />
        <mxCell id="1" parent="0" />
        <mxCell id="aHB1TRmOb6sOubxurkW1-140" value="" style="rounded=0;whiteSpace=wrap;html=1;" vertex="1" parent="1">
          <mxGeometry x="190" y="602" width="200" height="192" as="geometry" />
        </mxCell>
        <mxCell id="aHB1TRmOb6sOubxurkW1-141" value="" style="rounded=0;whiteSpace=wrap;html=1;" vertex="1" parent="1">
          <mxGeometry x="315" y="1520" width="200" height="300" as="geometry" />
        </mxCell>
        <mxCell id="aHB1TRmOb6sOubxurkW1-142" value="TasOn 고객" style="shape=umlActor;verticalLabelPosition=bottom;verticalAlign=top;html=1;labelBackgroundColor=none;" vertex="1" parent="1">
          <mxGeometry x="40" y="60" width="30" height="60" as="geometry" />
        </mxCell>
        <mxCell id="aHB1TRmOb6sOubxurkW1-143" value="" style="rounded=0;html=1;jettySize=auto;orthogonalLoop=1;fontSize=11;endArrow=block;endFill=0;endSize=8;strokeWidth=1;shadow=0;labelBackgroundColor=none;edgeStyle=orthogonalEdgeStyle;fontColor=default;entryX=0;entryY=0.5;entryDx=0;entryDy=0;exitX=1;exitY=0.5;exitDx=0;exitDy=0;" edge="1" parent="1" source="aHB1TRmOb6sOubxurkW1-144" target="aHB1TRmOb6sOubxurkW1-145">
          <mxGeometry relative="1" as="geometry">
            <mxPoint x="430" y="100" as="targetPoint" />
            <mxPoint x="310" y="100" as="sourcePoint" />
          </mxGeometry>
        </mxCell>
        <mxCell id="aHB1TRmOb6sOubxurkW1-144" value="TasOn 회원가입" style="rounded=1;whiteSpace=wrap;html=1;fontSize=12;glass=0;strokeWidth=2;shadow=0;labelBackgroundColor=none;" vertex="1" parent="1">
          <mxGeometry x="110" y="60" width="130" height="60" as="geometry" />
        </mxCell>
        <mxCell id="aHB1TRmOb6sOubxurkW1-145" value="TasOn MA Site 생성" style="rounded=1;whiteSpace=wrap;html=1;fontSize=12;glass=0;strokeWidth=2;shadow=0;labelBackgroundColor=none;" vertex="1" parent="1">
          <mxGeometry x="430" y="60" width="140" height="60" as="geometry" />
        </mxCell>
        <mxCell id="aHB1TRmOb6sOubxurkW1-146" value="" style="endArrow=classic;html=1;rounded=0;labelBackgroundColor=none;fontColor=default;" edge="1" parent="1">
          <mxGeometry width="50" height="50" relative="1" as="geometry">
            <mxPoint x="170" y="120" as="sourcePoint" />
            <mxPoint x="170" y="290" as="targetPoint" />
          </mxGeometry>
        </mxCell>
        <mxCell id="aHB1TRmOb6sOubxurkW1-147" value="AMC" style="shape=cylinder3;whiteSpace=wrap;html=1;boundedLbl=1;backgroundOutline=1;size=15;strokeWidth=2;labelBackgroundColor=none;fillColor=#dae8fc;strokeColor=#6c8ebf;" vertex="1" parent="1">
          <mxGeometry x="110" y="280" width="120" height="80" as="geometry" />
        </mxCell>
        <mxCell id="aHB1TRmOb6sOubxurkW1-148" value="" style="endArrow=classic;html=1;rounded=0;labelBackgroundColor=none;fontColor=default;" edge="1" parent="1" target="aHB1TRmOb6sOubxurkW1-149">
          <mxGeometry width="50" height="50" relative="1" as="geometry">
            <mxPoint x="500" y="120" as="sourcePoint" />
            <mxPoint x="500" y="220" as="targetPoint" />
          </mxGeometry>
        </mxCell>
        <mxCell id="aHB1TRmOb6sOubxurkW1-149" value="TMA" style="shape=cylinder3;whiteSpace=wrap;html=1;boundedLbl=1;backgroundOutline=1;size=15;strokeWidth=2;labelBackgroundColor=none;fillColor=#dae8fc;strokeColor=#6c8ebf;" vertex="1" parent="1">
          <mxGeometry x="440" y="280" width="120" height="80" as="geometry" />
        </mxCell>
        <mxCell id="aHB1TRmOb6sOubxurkW1-150" value="tma-api" style="rounded=1;whiteSpace=wrap;html=1;strokeWidth=2;labelBackgroundColor=none;fillColor=#fff2cc;strokeColor=#d6b656;" vertex="1" parent="1">
          <mxGeometry x="435" y="160" width="130" height="60" as="geometry" />
        </mxCell>
        <mxCell id="aHB1TRmOb6sOubxurkW1-151" value="" style="endArrow=classic;html=1;rounded=0;entryX=0;entryY=0.5;entryDx=0;entryDy=0;entryPerimeter=0;exitX=1;exitY=0.5;exitDx=0;exitDy=0;exitPerimeter=0;labelBackgroundColor=none;fontColor=default;" edge="1" parent="1">
          <mxGeometry width="50" height="50" relative="1" as="geometry">
            <mxPoint x="230" y="320" as="sourcePoint" />
            <mxPoint x="440" y="320" as="targetPoint" />
          </mxGeometry>
        </mxCell>
        <mxCell id="aHB1TRmOb6sOubxurkW1-152" value="SITE_SEQ 동기화 진행" style="edgeLabel;html=1;align=center;verticalAlign=middle;resizable=0;points=[];fontSize=12;fontStyle=0;labelBackgroundColor=none;" vertex="1" connectable="0" parent="aHB1TRmOb6sOubxurkW1-151">
          <mxGeometry x="0.0141" y="-4" relative="1" as="geometry">
            <mxPoint x="-2" y="-22" as="offset" />
          </mxGeometry>
        </mxCell>
        <mxCell id="aHB1TRmOb6sOubxurkW1-153" value="tma.USER_INFO&#xa;tma.SITE_INFO&#xa;tma.APP_INFO&#xa;tma.USER_ROLE_LIST&#xa;tma.USER_SITE_LIST" style="whiteSpace=wrap;html=1;aspect=fixed;labelBackgroundColor=none;" vertex="1" parent="1">
          <mxGeometry x="420" y="370" width="160" height="160" as="geometry" />
        </mxCell>
        <mxCell id="aHB1TRmOb6sOubxurkW1-154" value="&lt;div&gt;amc.USER_INFO&lt;/div&gt;&lt;div&gt;amc.SITE_INFO&lt;/div&gt;&lt;div&gt;amc.APP_INFO&lt;/div&gt;&lt;div&gt;amc.USER_ROLE_LIST&lt;/div&gt;&lt;div&gt;amc.USER_SITE_LIST&lt;/div&gt;" style="whiteSpace=wrap;html=1;aspect=fixed;labelBackgroundColor=none;" vertex="1" parent="1">
          <mxGeometry x="90" y="370" width="160" height="160" as="geometry" />
        </mxCell>
        <mxCell id="aHB1TRmOb6sOubxurkW1-155" value="" style="endArrow=classic;html=1;rounded=0;entryX=0;entryY=0.5;entryDx=0;entryDy=0;entryPerimeter=0;labelBackgroundColor=none;fontColor=default;exitX=1;exitY=0.5;exitDx=0;exitDy=0;" edge="1" parent="1" source="aHB1TRmOb6sOubxurkW1-150" target="aHB1TRmOb6sOubxurkW1-156">
          <mxGeometry width="50" height="50" relative="1" as="geometry">
            <mxPoint x="570" y="190" as="sourcePoint" />
            <mxPoint x="615" y="310" as="targetPoint" />
          </mxGeometry>
        </mxCell>
        <mxCell id="aHB1TRmOb6sOubxurkW1-156" value="Onsite 캠페인&amp;nbsp;&lt;br&gt;JSON 미리 생성" style="shape=note;whiteSpace=wrap;html=1;backgroundOutline=1;darkOpacity=0.05;labelBackgroundColor=none;fillColor=#d5e8d4;strokeColor=#82b366;" vertex="1" parent="1">
          <mxGeometry x="620" y="145" width="100" height="90" as="geometry" />
        </mxCell>
        <mxCell id="aHB1TRmOb6sOubxurkW1-157" value="&lt;h2&gt;&lt;font style=&quot;font-size: 13px;&quot;&gt;1. TasOn 회원가입 -&amp;gt; TasOn&amp;nbsp; MA 가입 하는 로직&amp;nbsp;&lt;/font&gt;&lt;/h2&gt;" style="text;strokeColor=none;align=left;fillColor=none;html=1;verticalAlign=middle;whiteSpace=wrap;rounded=0;labelBackgroundColor=none;" vertex="1" parent="1">
          <mxGeometry x="10" y="20" width="290" height="40" as="geometry" />
        </mxCell>
        <mxCell id="aHB1TRmOb6sOubxurkW1-158" value="tas-user-web" style="rounded=1;whiteSpace=wrap;html=1;strokeWidth=2;labelBackgroundColor=none;fillColor=#fff2cc;strokeColor=#d6b656;" vertex="1" parent="1">
          <mxGeometry x="110" y="160" width="130" height="60" as="geometry" />
        </mxCell>
        <mxCell id="aHB1TRmOb6sOubxurkW1-159" value="&lt;h2&gt;&lt;span style=&quot;font-size: 13px;&quot;&gt;2. Cafe24에서 TasOn 가입&amp;nbsp;&lt;/span&gt;&lt;/h2&gt;" style="text;strokeColor=none;align=left;fillColor=none;html=1;verticalAlign=middle;whiteSpace=wrap;rounded=0;labelBackgroundColor=none;" vertex="1" parent="1">
          <mxGeometry x="30" y="970" width="290" height="30" as="geometry" />
        </mxCell>
        <mxCell id="aHB1TRmOb6sOubxurkW1-160" value="Cafe24 회원" style="shape=umlActor;verticalLabelPosition=bottom;verticalAlign=top;html=1;labelBackgroundColor=none;" vertex="1" parent="1">
          <mxGeometry x="40" y="1040" width="30" height="60" as="geometry" />
        </mxCell>
        <mxCell id="aHB1TRmOb6sOubxurkW1-161" value="" style="rounded=0;html=1;jettySize=auto;orthogonalLoop=1;fontSize=11;endArrow=block;endFill=0;endSize=8;strokeWidth=1;shadow=0;labelBackgroundColor=none;edgeStyle=orthogonalEdgeStyle;fontColor=default;entryX=0;entryY=0.5;entryDx=0;entryDy=0;exitX=1;exitY=0.5;exitDx=0;exitDy=0;" edge="1" parent="1" source="aHB1TRmOb6sOubxurkW1-162" target="aHB1TRmOb6sOubxurkW1-164">
          <mxGeometry relative="1" as="geometry">
            <mxPoint x="420" y="1080" as="targetPoint" />
            <mxPoint x="250" y="1070" as="sourcePoint" />
            <Array as="points" />
          </mxGeometry>
        </mxCell>
        <mxCell id="aHB1TRmOb6sOubxurkW1-162" value="Cafe24 회원가입" style="rounded=1;whiteSpace=wrap;html=1;fontSize=12;glass=0;strokeWidth=2;shadow=0;labelBackgroundColor=none;" vertex="1" parent="1">
          <mxGeometry x="90" y="1040" width="130" height="60" as="geometry" />
        </mxCell>
        <mxCell id="aHB1TRmOb6sOubxurkW1-163" value="" style="edgeStyle=orthogonalEdgeStyle;rounded=0;orthogonalLoop=1;jettySize=auto;html=1;" edge="1" parent="1" source="aHB1TRmOb6sOubxurkW1-164" target="aHB1TRmOb6sOubxurkW1-187">
          <mxGeometry relative="1" as="geometry" />
        </mxCell>
        <mxCell id="aHB1TRmOb6sOubxurkW1-164" value="TasOn 앱 설치" style="rounded=1;whiteSpace=wrap;html=1;fontSize=12;glass=0;strokeWidth=2;shadow=0;labelBackgroundColor=none;" vertex="1" parent="1">
          <mxGeometry x="280" y="1040" width="140" height="60" as="geometry" />
        </mxCell>
        <mxCell id="aHB1TRmOb6sOubxurkW1-165" value="tma.USER_INFO&#xa;tma.SITE_INFO&#xa;tma.APP_INFO&#xa;tma.USER_ROLE_LIST&#xa;tma.USER_SITE_LIST" style="whiteSpace=wrap;html=1;aspect=fixed;labelBackgroundColor=none;" vertex="1" parent="1">
          <mxGeometry x="550" y="1610" width="140" height="140" as="geometry" />
        </mxCell>
        <mxCell id="aHB1TRmOb6sOubxurkW1-166" value="Onsite 캠페인&amp;nbsp;&lt;br&gt;JSON 미리 생성" style="shape=note;whiteSpace=wrap;html=1;backgroundOutline=1;darkOpacity=0.05;labelBackgroundColor=none;fillColor=#d5e8d4;strokeColor=#82b366;" vertex="1" parent="1">
          <mxGeometry x="740" y="1520" width="100" height="90" as="geometry" />
        </mxCell>
        <mxCell id="aHB1TRmOb6sOubxurkW1-167" value="" style="rounded=0;html=1;jettySize=auto;orthogonalLoop=1;fontSize=11;endArrow=block;endFill=0;endSize=8;strokeWidth=1;shadow=0;labelBackgroundColor=none;edgeStyle=orthogonalEdgeStyle;fontColor=default;entryX=0;entryY=0.5;entryDx=0;entryDy=0;" edge="1" parent="1" source="aHB1TRmOb6sOubxurkW1-190" target="aHB1TRmOb6sOubxurkW1-169">
          <mxGeometry relative="1" as="geometry">
            <mxPoint x="980" y="1080" as="targetPoint" />
            <mxPoint x="600" y="1070" as="sourcePoint" />
          </mxGeometry>
        </mxCell>
        <mxCell id="aHB1TRmOb6sOubxurkW1-168" value="" style="edgeStyle=orthogonalEdgeStyle;rounded=0;orthogonalLoop=1;jettySize=auto;html=1;" edge="1" parent="1" source="aHB1TRmOb6sOubxurkW1-169" target="aHB1TRmOb6sOubxurkW1-181">
          <mxGeometry relative="1" as="geometry">
            <Array as="points">
              <mxPoint x="960" y="1070" />
              <mxPoint x="960" y="1070" />
            </Array>
          </mxGeometry>
        </mxCell>
        <mxCell id="aHB1TRmOb6sOubxurkW1-169" value="Cafe24 스크립트 설치" style="rounded=1;whiteSpace=wrap;html=1;fontSize=12;glass=0;strokeWidth=2;shadow=0;labelBackgroundColor=none;" vertex="1" parent="1">
          <mxGeometry x="770" y="1040" width="140" height="60" as="geometry" />
        </mxCell>
        <mxCell id="aHB1TRmOb6sOubxurkW1-170" value="Script 설치" style="rounded=1;whiteSpace=wrap;html=1;fontSize=12;glass=0;strokeWidth=2;shadow=0;labelBackgroundColor=none;" vertex="1" parent="1">
          <mxGeometry x="760" y="60" width="140" height="60" as="geometry" />
        </mxCell>
        <mxCell id="aHB1TRmOb6sOubxurkW1-171" value="" style="rounded=0;html=1;jettySize=auto;orthogonalLoop=1;fontSize=11;endArrow=block;endFill=0;endSize=8;strokeWidth=1;shadow=0;labelBackgroundColor=none;edgeStyle=orthogonalEdgeStyle;fontColor=default;entryX=0;entryY=0.5;entryDx=0;entryDy=0;" edge="1" parent="1">
          <mxGeometry relative="1" as="geometry">
            <mxPoint x="760" y="89.78999999999999" as="targetPoint" />
            <mxPoint x="570" y="90" as="sourcePoint" />
          </mxGeometry>
        </mxCell>
        <mxCell id="aHB1TRmOb6sOubxurkW1-172" value="" style="endArrow=classic;html=1;rounded=0;labelBackgroundColor=none;fontColor=default;" edge="1" parent="1" target="aHB1TRmOb6sOubxurkW1-173">
          <mxGeometry width="50" height="50" relative="1" as="geometry">
            <mxPoint x="840" y="1100" as="sourcePoint" />
            <mxPoint x="840" y="1200" as="targetPoint" />
          </mxGeometry>
        </mxCell>
        <mxCell id="aHB1TRmOb6sOubxurkW1-173" value="TMA" style="shape=cylinder3;whiteSpace=wrap;html=1;boundedLbl=1;backgroundOutline=1;size=15;strokeWidth=2;labelBackgroundColor=none;fillColor=#dae8fc;strokeColor=#6c8ebf;" vertex="1" parent="1">
          <mxGeometry x="780" y="1270" width="120" height="80" as="geometry" />
        </mxCell>
        <mxCell id="aHB1TRmOb6sOubxurkW1-174" value="tma-api" style="rounded=1;whiteSpace=wrap;html=1;strokeWidth=2;labelBackgroundColor=none;fillColor=#fff2cc;strokeColor=#d6b656;" vertex="1" parent="1">
          <mxGeometry x="775" y="1140" width="130" height="60" as="geometry" />
        </mxCell>
        <mxCell id="aHB1TRmOb6sOubxurkW1-175" value="" style="endArrow=classic;html=1;rounded=0;entryX=0;entryY=0.5;entryDx=0;entryDy=0;exitX=1;exitY=0.5;exitDx=0;exitDy=0;" edge="1" parent="1" source="aHB1TRmOb6sOubxurkW1-174" target="aHB1TRmOb6sOubxurkW1-176">
          <mxGeometry width="50" height="50" relative="1" as="geometry">
            <mxPoint x="670" y="1320" as="sourcePoint" />
            <mxPoint x="970" y="1170" as="targetPoint" />
          </mxGeometry>
        </mxCell>
        <mxCell id="aHB1TRmOb6sOubxurkW1-176" value="Cafe24 API 호출&lt;br&gt;- script 설치&amp;nbsp;" style="rounded=1;whiteSpace=wrap;html=1;strokeWidth=2;fillColor=#f8cecc;strokeColor=#b85450;" vertex="1" parent="1">
          <mxGeometry x="1070" y="1140" width="120" height="60" as="geometry" />
        </mxCell>
        <mxCell id="aHB1TRmOb6sOubxurkW1-177" value="" style="endArrow=classic;html=1;rounded=0;labelBackgroundColor=none;fontColor=default;entryX=1;entryY=0.5;entryDx=0;entryDy=0;entryPerimeter=0;strokeWidth=0.5;exitX=0.5;exitY=1;exitDx=0;exitDy=0;" edge="1" parent="1" source="aHB1TRmOb6sOubxurkW1-176" target="aHB1TRmOb6sOubxurkW1-173">
          <mxGeometry width="50" height="50" relative="1" as="geometry">
            <mxPoint x="1059.47" y="1200" as="sourcePoint" />
            <mxPoint x="900" y="1300" as="targetPoint" />
          </mxGeometry>
        </mxCell>
        <mxCell id="aHB1TRmOb6sOubxurkW1-178" value="&lt;br&gt;&lt;div style=&quot;border-color: var(--border-color); text-align: left;&quot;&gt;tma.CAFE24_SCRIPT_REQUEST&lt;/div&gt;&lt;span style=&quot;border-color: var(--border-color);&quot;&gt;tma.CAFE24_SCRIPT_INFO&lt;br&gt;tma.SITE_INFO - update&lt;br&gt;&lt;/span&gt;" style="whiteSpace=wrap;html=1;aspect=fixed;labelBackgroundColor=none;" vertex="1" parent="1">
          <mxGeometry x="770" y="1360" width="140" height="140" as="geometry" />
        </mxCell>
        <mxCell id="aHB1TRmOb6sOubxurkW1-179" value="요청시 CAFE24_SCRIPT_REQUEST&lt;br style=&quot;font-size: 11px;&quot;&gt;INSERT" style="text;html=1;align=center;verticalAlign=middle;resizable=0;points=[];autosize=1;strokeColor=none;fillColor=none;fontSize=11;" vertex="1" parent="1">
          <mxGeometry x="925" y="1110" width="210" height="40" as="geometry" />
        </mxCell>
        <mxCell id="aHB1TRmOb6sOubxurkW1-180" value="설치 완료 시 CAFE24_SCRIPT_INFO&amp;nbsp;&lt;br style=&quot;font-size: 11px;&quot;&gt;INSERT" style="text;html=1;align=center;verticalAlign=middle;resizable=0;points=[];autosize=1;strokeColor=none;fillColor=none;fontSize=11;" vertex="1" parent="1">
          <mxGeometry x="1013" y="1253" width="210" height="40" as="geometry" />
        </mxCell>
        <mxCell id="aHB1TRmOb6sOubxurkW1-181" value="온보딩 완료" style="ellipse;whiteSpace=wrap;html=1;rounded=1;glass=0;strokeWidth=2;shadow=0;labelBackgroundColor=none;" vertex="1" parent="1">
          <mxGeometry x="1070" y="1030" width="80" height="80" as="geometry" />
        </mxCell>
        <mxCell id="aHB1TRmOb6sOubxurkW1-182" value="" style="edgeStyle=orthogonalEdgeStyle;rounded=0;orthogonalLoop=1;jettySize=auto;html=1;exitX=1;exitY=0.5;exitDx=0;exitDy=0;" edge="1" parent="1" source="aHB1TRmOb6sOubxurkW1-170" target="aHB1TRmOb6sOubxurkW1-183">
          <mxGeometry relative="1" as="geometry">
            <mxPoint x="920" y="90" as="sourcePoint" />
          </mxGeometry>
        </mxCell>
        <mxCell id="aHB1TRmOb6sOubxurkW1-183" value="온보딩 완료" style="ellipse;whiteSpace=wrap;html=1;rounded=1;glass=0;strokeWidth=2;shadow=0;labelBackgroundColor=none;" vertex="1" parent="1">
          <mxGeometry x="1060" y="50" width="80" height="80" as="geometry" />
        </mxCell>
        <mxCell id="aHB1TRmOb6sOubxurkW1-184" value="TMA" style="shape=cylinder3;whiteSpace=wrap;html=1;boundedLbl=1;backgroundOutline=1;size=15;strokeWidth=2;labelBackgroundColor=none;fillColor=#dae8fc;strokeColor=#6c8ebf;" vertex="1" parent="1">
          <mxGeometry x="290" y="1270" width="120" height="80" as="geometry" />
        </mxCell>
        <mxCell id="aHB1TRmOb6sOubxurkW1-185" value="tma.CAFE24_INTRO_LOG&lt;br&gt;tma.CAFE24_STORE&lt;br&gt;tma.CAFE24_SHOP&lt;br&gt;tma.CAFE24_SMS_SETTING" style="whiteSpace=wrap;html=1;aspect=fixed;labelBackgroundColor=none;" vertex="1" parent="1">
          <mxGeometry x="280" y="1360" width="140" height="140" as="geometry" />
        </mxCell>
        <mxCell id="aHB1TRmOb6sOubxurkW1-186" value="" style="edgeStyle=orthogonalEdgeStyle;rounded=0;orthogonalLoop=1;jettySize=auto;html=1;" edge="1" parent="1" source="aHB1TRmOb6sOubxurkW1-187" target="aHB1TRmOb6sOubxurkW1-184">
          <mxGeometry relative="1" as="geometry" />
        </mxCell>
        <mxCell id="aHB1TRmOb6sOubxurkW1-187" value="TasOn 앱 접속" style="rounded=1;whiteSpace=wrap;html=1;fontSize=12;glass=0;strokeWidth=2;shadow=0;labelBackgroundColor=none;" vertex="1" parent="1">
          <mxGeometry x="280" y="1140" width="140" height="60" as="geometry" />
        </mxCell>
        <mxCell id="aHB1TRmOb6sOubxurkW1-188" value="" style="curved=1;endArrow=classic;html=1;rounded=0;exitX=1;exitY=0.5;exitDx=0;exitDy=0;entryX=0;entryY=0.5;entryDx=0;entryDy=0;" edge="1" parent="1" source="aHB1TRmOb6sOubxurkW1-187" target="aHB1TRmOb6sOubxurkW1-190">
          <mxGeometry width="50" height="50" relative="1" as="geometry">
            <mxPoint x="440" y="1130" as="sourcePoint" />
            <mxPoint x="450" y="1070" as="targetPoint" />
            <Array as="points">
              <mxPoint x="450" y="1130" />
              <mxPoint x="440" y="1080" />
            </Array>
          </mxGeometry>
        </mxCell>
        <mxCell id="aHB1TRmOb6sOubxurkW1-189" value="CAFE24_INTRO_LOG 확인 없으면,&amp;nbsp;&lt;br style=&quot;font-size: 10px;&quot;&gt;STORE, SHOP, SMS_SETTING 정보 INSERT" style="text;html=1;align=center;verticalAlign=middle;resizable=0;points=[];autosize=1;strokeColor=none;fillColor=none;fontSize=10;" vertex="1" parent="1">
          <mxGeometry x="240" y="1215" width="230" height="40" as="geometry" />
        </mxCell>
        <mxCell id="aHB1TRmOb6sOubxurkW1-190" value="Cafe24 에서 접근 &lt;br&gt;TasOn 회원가입" style="rounded=1;whiteSpace=wrap;html=1;fontSize=12;glass=0;strokeWidth=2;shadow=0;labelBackgroundColor=none;" vertex="1" parent="1">
          <mxGeometry x="550" y="1040" width="140" height="60" as="geometry" />
        </mxCell>
        <mxCell id="aHB1TRmOb6sOubxurkW1-191" value="tma-api" style="rounded=1;whiteSpace=wrap;html=1;strokeWidth=2;labelBackgroundColor=none;fillColor=#fff2cc;strokeColor=#d6b656;" vertex="1" parent="1">
          <mxGeometry x="555" y="1260" width="130" height="60" as="geometry" />
        </mxCell>
        <mxCell id="aHB1TRmOb6sOubxurkW1-192" value="" style="endArrow=classic;html=1;rounded=0;labelBackgroundColor=none;fontColor=default;exitX=0.5;exitY=1;exitDx=0;exitDy=0;" edge="1" parent="1" source="aHB1TRmOb6sOubxurkW1-190">
          <mxGeometry width="50" height="50" relative="1" as="geometry">
            <mxPoint x="625" y="1110" as="sourcePoint" />
            <mxPoint x="620" y="1260" as="targetPoint" />
          </mxGeometry>
        </mxCell>
        <mxCell id="aHB1TRmOb6sOubxurkW1-193" value="" style="endArrow=classic;html=1;rounded=0;labelBackgroundColor=none;fontColor=default;exitX=0.5;exitY=1;exitDx=0;exitDy=0;entryX=0.5;entryY=0;entryDx=0;entryDy=0;entryPerimeter=0;" edge="1" parent="1" source="aHB1TRmOb6sOubxurkW1-191" target="aHB1TRmOb6sOubxurkW1-194">
          <mxGeometry width="50" height="50" relative="1" as="geometry">
            <mxPoint x="616.9" y="1350" as="sourcePoint" />
            <mxPoint x="620" y="1520" as="targetPoint" />
          </mxGeometry>
        </mxCell>
        <mxCell id="aHB1TRmOb6sOubxurkW1-194" value="TMA" style="shape=cylinder3;whiteSpace=wrap;html=1;boundedLbl=1;backgroundOutline=1;size=15;strokeWidth=2;labelBackgroundColor=none;fillColor=#dae8fc;strokeColor=#6c8ebf;" vertex="1" parent="1">
          <mxGeometry x="560" y="1525" width="120" height="80" as="geometry" />
        </mxCell>
        <mxCell id="aHB1TRmOb6sOubxurkW1-195" value="" style="endArrow=classic;html=1;rounded=0;entryX=0;entryY=0.5;entryDx=0;entryDy=0;entryPerimeter=0;labelBackgroundColor=none;fontColor=default;exitX=1;exitY=0.5;exitDx=0;exitDy=0;exitPerimeter=0;" edge="1" parent="1" source="aHB1TRmOb6sOubxurkW1-194" target="aHB1TRmOb6sOubxurkW1-166">
          <mxGeometry width="50" height="50" relative="1" as="geometry">
            <mxPoint x="730" y="1564.41" as="sourcePoint" />
            <mxPoint x="785" y="1564.41" as="targetPoint" />
          </mxGeometry>
        </mxCell>
        <mxCell id="aHB1TRmOb6sOubxurkW1-196" value="" style="endArrow=classic;html=1;rounded=0;labelBackgroundColor=none;fontColor=default;exitX=0.5;exitY=1;exitDx=0;exitDy=0;fontSize=8;strokeWidth=0.5;" edge="1" parent="1" source="aHB1TRmOb6sOubxurkW1-191">
          <mxGeometry width="50" height="50" relative="1" as="geometry">
            <mxPoint x="600" y="1320" as="sourcePoint" />
            <mxPoint x="480" y="1520" as="targetPoint" />
          </mxGeometry>
        </mxCell>
        <mxCell id="aHB1TRmOb6sOubxurkW1-197" value="TasOn&#xa;POSTMAN.TAS_USER&#xa;POSTMAN.TAS_USER_AMC&#xa;&#xa;&#xa;포스트맨&#xa;POSTMAN.USERS&#xa;&#xa;&#xa;푸시피아&#xa;pms.TB_WEB_USER&#xa;&#xa;&#xa;AMC&#xa;amc.USER_INFO&#xa;amc.SITE_INFO&#xa;amc.APP_INFO&#xa;amc.USER_ROLE_LIST&#xa;amc.USER_SITE_LIST" style="text;whiteSpace=wrap;" vertex="1" parent="1">
          <mxGeometry x="330" y="1530" width="185" height="290" as="geometry" />
        </mxCell>
        <mxCell id="aHB1TRmOb6sOubxurkW1-198" value="" style="endArrow=classic;html=1;rounded=0;labelBackgroundColor=none;fontColor=default;" edge="1" parent="1" target="aHB1TRmOb6sOubxurkW1-199">
          <mxGeometry width="50" height="50" relative="1" as="geometry">
            <mxPoint x="825" y="120" as="sourcePoint" />
            <mxPoint x="825" y="220" as="targetPoint" />
          </mxGeometry>
        </mxCell>
        <mxCell id="aHB1TRmOb6sOubxurkW1-199" value="TMA" style="shape=cylinder3;whiteSpace=wrap;html=1;boundedLbl=1;backgroundOutline=1;size=15;strokeWidth=2;labelBackgroundColor=none;fillColor=#dae8fc;strokeColor=#6c8ebf;" vertex="1" parent="1">
          <mxGeometry x="765" y="290" width="120" height="80" as="geometry" />
        </mxCell>
        <mxCell id="aHB1TRmOb6sOubxurkW1-200" value="tma-api" style="rounded=1;whiteSpace=wrap;html=1;strokeWidth=2;labelBackgroundColor=none;fillColor=#fff2cc;strokeColor=#d6b656;" vertex="1" parent="1">
          <mxGeometry x="760" y="160" width="130" height="60" as="geometry" />
        </mxCell>
        <mxCell id="aHB1TRmOb6sOubxurkW1-201" value="" style="endArrow=classic;html=1;rounded=0;entryX=0;entryY=0.5;entryDx=0;entryDy=0;exitX=1;exitY=0.5;exitDx=0;exitDy=0;" edge="1" parent="1" source="aHB1TRmOb6sOubxurkW1-200" target="aHB1TRmOb6sOubxurkW1-202">
          <mxGeometry width="50" height="50" relative="1" as="geometry">
            <mxPoint x="655" y="340" as="sourcePoint" />
            <mxPoint x="955" y="190" as="targetPoint" />
          </mxGeometry>
        </mxCell>
        <mxCell id="aHB1TRmOb6sOubxurkW1-202" value="Cafe24 API 호출&lt;br&gt;- script 설치&amp;nbsp;" style="rounded=1;whiteSpace=wrap;html=1;strokeWidth=2;fillColor=#f8cecc;strokeColor=#b85450;" vertex="1" parent="1">
          <mxGeometry x="1053" y="160" width="120" height="60" as="geometry" />
        </mxCell>
        <mxCell id="aHB1TRmOb6sOubxurkW1-203" value="&lt;br&gt;&lt;div style=&quot;border-color: var(--border-color); text-align: left;&quot;&gt;tma.CAFE24_SCRIPT_REQUEST&lt;/div&gt;&lt;span style=&quot;border-color: var(--border-color);&quot;&gt;tma.CAFE24_SCRIPT_INFO&lt;br&gt;tma.SITE_INFO - update&lt;br&gt;&lt;/span&gt;" style="whiteSpace=wrap;html=1;aspect=fixed;labelBackgroundColor=none;" vertex="1" parent="1">
          <mxGeometry x="755" y="380" width="140" height="140" as="geometry" />
        </mxCell>
        <mxCell id="aHB1TRmOb6sOubxurkW1-204" value="요청시 CAFE24_SCRIPT_REQUEST&lt;br style=&quot;font-size: 11px;&quot;&gt;INSERT" style="text;html=1;align=center;verticalAlign=middle;resizable=0;points=[];autosize=1;strokeColor=none;fillColor=none;fontSize=11;" vertex="1" parent="1">
          <mxGeometry x="910" y="130" width="210" height="40" as="geometry" />
        </mxCell>
        <mxCell id="aHB1TRmOb6sOubxurkW1-205" value="설치 완료 시 CAFE24_SCRIPT_INFO&amp;nbsp;&lt;br style=&quot;font-size: 11px;&quot;&gt;INSERT" style="text;html=1;align=center;verticalAlign=middle;resizable=0;points=[];autosize=1;strokeColor=none;fillColor=none;fontSize=11;" vertex="1" parent="1">
          <mxGeometry x="1008" y="280" width="210" height="40" as="geometry" />
        </mxCell>
        <mxCell id="aHB1TRmOb6sOubxurkW1-206" value="TasON&lt;br&gt;POSTMAN" style="shape=cylinder3;whiteSpace=wrap;html=1;boundedLbl=1;backgroundOutline=1;size=15;strokeWidth=2;labelBackgroundColor=none;fillColor=#b1ddf0;strokeColor=#10739e;" vertex="1" parent="1">
          <mxGeometry x="180" y="1574" width="120" height="80" as="geometry" />
        </mxCell>
        <mxCell id="aHB1TRmOb6sOubxurkW1-207" value="포스트맨&lt;br&gt;POSTMAN" style="shape=cylinder3;whiteSpace=wrap;html=1;boundedLbl=1;backgroundOutline=1;size=15;strokeWidth=2;labelBackgroundColor=none;fillColor=#b1ddf0;strokeColor=#10739e;" vertex="1" parent="1">
          <mxGeometry x="180" y="1670" width="120" height="80" as="geometry" />
        </mxCell>
        <mxCell id="aHB1TRmOb6sOubxurkW1-208" value="푸시피아&lt;br&gt;PMS" style="shape=cylinder3;whiteSpace=wrap;html=1;boundedLbl=1;backgroundOutline=1;size=15;strokeWidth=2;labelBackgroundColor=none;fillColor=#b1ddf0;strokeColor=#10739e;" vertex="1" parent="1">
          <mxGeometry x="180" y="1770" width="120" height="80" as="geometry" />
        </mxCell>
        <mxCell id="aHB1TRmOb6sOubxurkW1-209" value="AMC" style="shape=cylinder3;whiteSpace=wrap;html=1;boundedLbl=1;backgroundOutline=1;size=15;strokeWidth=2;labelBackgroundColor=none;fillColor=#dae8fc;strokeColor=#6c8ebf;" vertex="1" parent="1">
          <mxGeometry x="310" y="1850" width="120" height="80" as="geometry" />
        </mxCell>
        <mxCell id="aHB1TRmOb6sOubxurkW1-210" value="TasON&lt;br&gt;POSTMAN" style="shape=cylinder3;whiteSpace=wrap;html=1;boundedLbl=1;backgroundOutline=1;size=15;strokeWidth=2;labelBackgroundColor=none;fillColor=#b1ddf0;strokeColor=#10739e;" vertex="1" parent="1">
          <mxGeometry x="50" y="560" width="120" height="80" as="geometry" />
        </mxCell>
        <mxCell id="aHB1TRmOb6sOubxurkW1-211" value="포스트맨&lt;br&gt;POSTMAN" style="shape=cylinder3;whiteSpace=wrap;html=1;boundedLbl=1;backgroundOutline=1;size=15;strokeWidth=2;labelBackgroundColor=none;fillColor=#b1ddf0;strokeColor=#10739e;" vertex="1" parent="1">
          <mxGeometry x="50" y="660" width="120" height="76" as="geometry" />
        </mxCell>
        <mxCell id="aHB1TRmOb6sOubxurkW1-212" value="푸시피아&lt;br&gt;PMS" style="shape=cylinder3;whiteSpace=wrap;html=1;boundedLbl=1;backgroundOutline=1;size=15;strokeWidth=2;labelBackgroundColor=none;fillColor=#b1ddf0;strokeColor=#10739e;" vertex="1" parent="1">
          <mxGeometry x="50" y="756" width="120" height="80" as="geometry" />
        </mxCell>
        <mxCell id="aHB1TRmOb6sOubxurkW1-213" value="TasOn&#xa;POSTMAN.TAS_USER&#xa;POSTMAN.TAS_USER_AMC&#xa;&#xa;&#xa;포스트맨&#xa;POSTMAN.USERS&#xa;&#xa;&#xa;푸시피아&#xa;pms.TB_WEB_USER&#xa;&#xa;&#xa;" style="text;whiteSpace=wrap;" vertex="1" parent="1">
          <mxGeometry x="197.5" y="609.5" width="185" height="177" as="geometry" />
        </mxCell>
        <mxCell id="aHB1TRmOb6sOubxurkW1-214" value="" style="endArrow=classic;html=1;rounded=0;labelBackgroundColor=none;fontColor=default;entryX=1;entryY=0.5;entryDx=0;entryDy=0;entryPerimeter=0;strokeWidth=0.5;exitX=0.5;exitY=1;exitDx=0;exitDy=0;" edge="1" parent="1" source="aHB1TRmOb6sOubxurkW1-202">
          <mxGeometry width="50" height="50" relative="1" as="geometry">
            <mxPoint x="1115" y="224" as="sourcePoint" />
            <mxPoint x="885" y="334" as="targetPoint" />
          </mxGeometry>
        </mxCell>
      </root>
    </mxGraphModel>
  </diagram>
</mxfile>
